{"title":"Gainsbourg.Vie.hÃƒÂ©roÃƒÂ¯que.2010.x264.AC3.Fra.Multisub.mkv.Zen_Bud","uid":5754416,"size":1668972540,"categoryP":"video","categoryS":"movies","magnet":"?xt=urn:btih:645477c17c0ee2d8728ac6335758a6f224dd0f89&amp;dn=Gainsbourg.Vie.h%C3%83%C2%A9ro%C3%83%C2%AFque.2010.x264.AC3.Fra.Multisub.mkv.Zen_Bud&amp;tr=udp%3A%2F%2Ftracker.openbittorrent.com%3A80&amp;tr=udp%3A%2F%2Fopen.demonii.com%3A1337&amp;tr=udp%3A%2F%2Ftracker.coppersurfer.tk%3A6969&amp;tr=udp%3A%2F%2Fexodus.desync.com%3A6969","seeders":0,"leechers":0,"uploader":"Zen_Bud","files":-1,"time":1281516903,"description":"General\nComplete name                    : Gainsbourg.Vie.hÃƒÂ©roÃƒÂ¯que.2010.mkv.Zen_Bud\nFormat                           : Matroska\nFile size                        : 1.55 GiB\nDuration                         : 2h 9mn\nOverall bit rate                 : 1 715 Kbps\nWriting application              : HandBrake 0.9.4\n\nVideo\n\nFormat                           : AVC\nDuration                         : 2h 9mn\nBit rate                         : 1 233 Kbps\nWidth                            : 720 pixels\nHeight                           : 436 pixels\nDisplay aspect ratio             : 2.35:1\nStream size                      : 1.12 GiB (72%)\nWriting library                  : x264 core 79\n\n\nAudio\n\nFormat                           : AC-3\nBit rate                         : 448 Kbps\nChannel(s)                       : 6 channels\nChannel positions                : Front: L C R, Side: L R, LFE\nSampling rate                    : 48.0 KHz\nStream size                      : 416 MiB (26%)\nLanguage                         : French\n\nText #1\nLanguage                         : Swedish\n\nText #2\nLanguage                         : Norwegian\n\nText #3\nLanguage                         : Danish\n\nText #4\nLanguage                         : Finnish\n\nText #5\nLanguage                         : Icelandic\n\n","torrent":{"xt":"urn:btih:645477c17c0ee2d8728ac6335758a6f224dd0f89","amp;dn":"Gainsbourg.Vie.h%C3%83%C2%A9ro%C3%83%C2%AFque.2010.x264.AC3.Fra.Multisub.mkv.Zen_Bud","amp;tr":["udp%3A%2F%2Ftracker.openbittorrent.com%3A80","udp%3A%2F%2Fopen.demonii.com%3A1337","udp%3A%2F%2Ftracker.coppersurfer.tk%3A6969","udp%3A%2F%2Fexodus.desync.com%3A6969"],"infoHash":"645477c17c0ee2d8728ac6335758a6f224dd0f89","infoHashBuffer":{"type":"Buffer","data":[100,84,119,193,124,14,226,216,114,138,198,51,87,88,166,242,36,221,15,137]},"announce":[],"urlList":[]}}